<svg width="45" height="46" viewBox="0 0 45 46" fill="none" xmlns="http://www.w3.org/2000/svg">
<g clip-path="url(#clip0_1_47)">
<path d="M37.8919 15.9681C37.4204 15.0089 36.7672 14.1574 35.9697 13.4621C35.1721 12.7667 34.2459 12.2413 33.2438 11.9157C32.2417 11.5901 31.1835 11.4707 30.1296 11.5645C29.0757 11.6582 28.0467 11.9632 27.1014 12.462L25.1399 13.4965L24.1611 11.5067C23.2084 9.56994 21.5363 8.11251 19.5127 7.45499C17.4891 6.79748 15.2797 6.99374 13.3705 8.00061C11.4614 9.00747 10.0089 10.7425 9.33264 12.8239C8.65634 14.9053 8.81162 17.1627 9.76431 19.0994L17.9275 35.6942L34.2857 27.0669C35.2312 26.5686 36.0745 25.8861 36.7675 25.0586C37.4604 24.231 37.9895 23.2746 38.3244 22.2439C38.6593 21.2132 38.7934 20.1284 38.7192 19.0516C38.645 17.9748 38.3639 16.927 37.8919 15.9681Z" stroke="#F19EDC" stroke-width="4" stroke-linecap="round" stroke-linejoin="round"/>
</g>
<defs>
<clipPath id="clip0_1_47">
<rect width="35" height="36" fill="white" transform="translate(11.1246) rotate(18)"/>
</clipPath>
</defs>
</svg>
